<svg width="138" height="38" viewBox="0 0 138 38" fill="none" xmlns="http://www.w3.org/2000/svg">
<rect x="0.5" y="0.5" width="137" height="37" rx="18.5" stroke="white"/>
<path d="M11.4489 24V13.0909H12.445V23.1051H17.6438V24H11.4489ZM19.8864 24V13.0909H26.2145V13.9858H20.8825V18.0927H25.8789V18.9876H20.8825V23.1051H26.321V24H19.8864ZM28.8086 24H27.7646L31.733 13.0909H32.7983L36.7667 24H35.7227L32.3029 14.3853H32.2283L28.8086 24ZM29.5597 19.8185H34.9716V20.7134H29.5597V19.8185ZM38.6364 24V13.0909H42.1573C42.9315 13.0909 43.5778 13.2312 44.0962 13.5117C44.6183 13.7887 45.0107 14.174 45.2734 14.6676C45.5398 15.1577 45.6729 15.7205 45.6729 16.3562C45.6729 16.9918 45.5398 17.5529 45.2734 18.0394C45.0107 18.5259 44.62 18.9059 44.1016 19.1793C43.5831 19.4528 42.9403 19.5895 42.1733 19.5895H39.1744V18.6786H42.1467C42.7148 18.6786 43.1871 18.5845 43.5636 18.3963C43.9435 18.2081 44.2259 17.94 44.4105 17.592C44.5987 17.244 44.6928 16.832 44.6928 16.3562C44.6928 15.8803 44.5987 15.4648 44.4105 15.1097C44.2223 14.7511 43.9382 14.4741 43.5582 14.2788C43.1818 14.0835 42.706 13.9858 42.1307 13.9858H39.6325V24H38.6364ZM43.4464 19.0781L46.131 24H44.9805L42.3224 19.0781H43.4464ZM56.5953 13.0909V24H55.6259L49.1806 14.8647H49.0953V24H48.0993V13.0909H49.0634L55.53 22.2369H55.6152V13.0909H56.5953ZM63.7145 13.0909H64.8651L68.8228 22.5938H68.9187L72.8764 13.0909H74.027V24H73.0895V15.195H73.0043L69.3235 24H68.418L64.7372 15.195H64.652V24H63.7145V13.0909ZM85.8709 18.5455C85.8709 19.6818 85.6685 20.6708 85.2637 21.5124C84.8588 22.3505 84.3013 23.0004 83.5911 23.462C82.8844 23.9201 82.0712 24.1491 81.1515 24.1491C80.2317 24.1491 79.4167 23.9201 78.7065 23.462C77.9998 23.0004 77.4441 22.3505 77.0392 21.5124C76.638 20.6708 76.4373 19.6818 76.4373 18.5455C76.4373 17.4091 76.638 16.4219 77.0392 15.5838C77.4441 14.7422 78.0016 14.0923 78.7118 13.6342C79.4221 13.1726 80.2353 12.9418 81.1515 12.9418C82.0712 12.9418 82.8844 13.1726 83.5911 13.6342C84.3013 14.0923 84.8588 14.7422 85.2637 15.5838C85.6685 16.4219 85.8709 17.4091 85.8709 18.5455ZM84.9015 18.5455C84.9015 17.5689 84.7381 16.7326 84.4114 16.0366C84.0847 15.337 83.639 14.8026 83.0744 14.4332C82.5098 14.0639 81.8688 13.8793 81.1515 13.8793C80.4377 13.8793 79.7985 14.0639 79.2338 14.4332C78.6692 14.8026 78.2218 15.3352 77.8915 16.0312C77.5648 16.7273 77.4015 17.5653 77.4015 18.5455C77.4015 19.522 77.5648 20.3583 77.8915 21.0543C78.2182 21.7504 78.6639 22.2848 79.2285 22.6577C79.7931 23.027 80.4341 23.2116 81.1515 23.2116C81.8688 23.2116 82.5098 23.027 83.0744 22.6577C83.6426 22.2884 84.09 21.7557 84.4167 21.0597C84.7434 20.3601 84.905 19.522 84.9015 18.5455ZM88.2799 24V13.0909H91.8009C92.575 13.0909 93.2213 13.2312 93.7398 13.5117C94.2618 13.7887 94.6542 14.174 94.917 14.6676C95.1833 15.1577 95.3165 15.7205 95.3165 16.3562C95.3165 16.9918 95.1833 17.5529 94.917 18.0394C94.6542 18.5259 94.2636 18.9059 93.7451 19.1793C93.2267 19.4528 92.5839 19.5895 91.8169 19.5895H88.8179V18.6786H91.7902C92.3584 18.6786 92.8307 18.5845 93.2071 18.3963C93.5871 18.2081 93.8694 17.94 94.0541 17.592C94.2423 17.244 94.3364 16.832 94.3364 16.3562C94.3364 15.8803 94.2423 15.4648 94.0541 15.1097C93.8659 14.7511 93.5818 14.4741 93.2018 14.2788C92.8254 14.0835 92.3495 13.9858 91.7742 13.9858H89.276V24H88.2799ZM93.0899 19.0781L95.7746 24H94.624L91.966 19.0781H93.0899ZM97.7428 24V13.0909H104.071V13.9858H98.7389V18.0927H103.735V18.9876H98.7389V23.1051H104.177V24H97.7428Z" fill="white"/>
<path d="M128.354 19.3536C128.549 19.1583 128.549 18.8417 128.354 18.6464L125.172 15.4645C124.976 15.2692 124.66 15.2692 124.464 15.4645C124.269 15.6597 124.269 15.9763 124.464 16.1716L127.293 19L124.464 21.8284C124.269 22.0237 124.269 22.3403 124.464 22.5355C124.66 22.7308 124.976 22.7308 125.172 22.5355L128.354 19.3536ZM111 19.5H128V18.5H111V19.5Z" fill="white"/>
</svg>
